<?xml version="1.0" standalone="no"?>
<!DOCTYPE svg PUBLIC "-//W3C//DTD SVG 20010904//EN"
 "http://www.w3.org/TR/2001/REC-SVG-20010904/DTD/svg10.dtd">
<svg version="1.0" xmlns="http://www.w3.org/2000/svg"
 width="322.000000pt" height="322.000000pt" viewBox="0 0 322.000000 322.000000"
 preserveAspectRatio="xMidYMid meet">
<metadata>
Created by potrace 1.11, written by Peter Selinger 2001-2013
</metadata>
<g transform="translate(0.000000,322.000000) scale(0.100000,-0.100000)"
fill="#000000" stroke="none">
<path d="M1720 3049 c-47 -5 -106 -18 -132 -29 -26 -11 -57 -20 -70 -20 -13 0
-41 -9 -63 -20 -22 -11 -47 -20 -56 -20 -9 0 -27 -8 -40 -19 -13 -10 -33 -21
-45 -25 -11 -3 -49 -26 -83 -51 -50 -34 -69 -43 -91 -39 -25 5 -28 3 -34 -30
-4 -20 -15 -40 -24 -45 -55 -29 -232 -244 -232 -280 0 -19 6 -21 65 -21 57 0
68 -3 97 -29 32 -29 33 -29 14 -50 -11 -12 -16 -24 -12 -28 3 -4 44 -9 91 -11
97 -5 104 -14 46 -58 -22 -16 -46 -43 -54 -60 -9 -17 -29 -37 -46 -44 -33 -13
-42 -44 -16 -54 17 -6 21 -36 5 -36 -6 0 -13 7 -16 15 -11 28 -31 15 -69 -45
-20 -33 -44 -65 -51 -71 -8 -6 -14 -18 -14 -27 0 -9 -10 -26 -21 -39 -28 -28
-37 -109 -16 -137 13 -17 19 -18 80 -7 88 15 157 52 240 127 26 22 70 119 84
183 5 21 3 23 -13 17 -10 -5 -27 -11 -36 -13 -10 -3 -18 -11 -18 -18 0 -6 -10
-20 -21 -31 l-22 -19 6 43 c3 24 12 51 20 60 9 9 18 29 22 44 4 15 13 32 21
39 8 6 14 20 14 29 0 10 11 32 25 48 14 17 25 35 25 40 0 20 -53 52 -85 52
-42 0 -59 19 -46 53 12 31 130 157 148 157 7 0 17 8 22 18 16 29 271 152 316
152 14 0 36 7 48 15 30 19 289 31 367 17 86 -16 143 -32 157 -44 15 -12 18
-54 4 -62 -4 -3 -26 -41 -46 -83 -21 -43 -45 -82 -52 -86 -7 -4 -13 -12 -13
-18 0 -5 -29 -60 -64 -122 -112 -197 -125 -224 -113 -236 15 -15 60 -14 132 4
33 8 66 14 73 15 19 0 14 -34 -8 -63 -11 -14 -20 -29 -20 -33 0 -12 -53 -88
-67 -97 -7 -4 -13 -14 -13 -21 0 -19 -60 -96 -76 -96 -8 0 -16 -16 -20 -41 -5
-32 -10 -39 -23 -34 -9 4 -22 9 -28 12 -19 8 -16 -18 4 -32 9 -7 14 -19 10
-29 -8 -21 -26 -21 -33 2 -3 9 -10 25 -15 34 -24 46 -6 78 45 78 29 0 39 10
25 27 -7 8 -32 13 -62 13 -34 0 -57 6 -69 17 -19 17 -36 20 -105 22 -22 1 -33
7 -38 21 -7 24 -35 26 -74 6 -15 -8 -55 -18 -89 -22 -59 -6 -62 -6 -71 19 -7
19 -18 26 -47 29 -37 4 -114 -11 -114 -22 0 -4 30 -12 66 -19 46 -10 72 -21
89 -39 22 -24 25 -24 71 -13 26 7 60 19 75 27 40 20 86 18 99 -5 6 -12 23 -21
43 -23 25 -2 33 -8 35 -27 4 -22 -14 -103 -27 -126 -3 -5 -7 -47 -8 -93 -3
-64 -9 -92 -28 -129 -21 -39 -25 -60 -25 -133 0 -92 10 -115 47 -108 15 3 18
14 18 80 0 58 4 80 18 95 10 12 20 43 23 74 3 30 12 68 19 84 8 17 16 38 19
48 9 28 23 19 30 -19 4 -19 14 -38 22 -41 16 -6 73 44 74 64 0 7 9 17 20 23
11 6 20 17 20 24 0 7 11 25 25 40 14 15 25 33 25 41 0 8 9 19 20 25 12 6 25
22 30 36 6 14 18 24 29 24 11 0 23 9 26 20 3 11 12 20 20 20 8 0 17 9 20 20 3
11 13 20 21 20 22 0 17 -38 -6 -45 -11 -3 -20 -13 -20 -22 0 -8 -9 -17 -20
-20 -11 -3 -20 -10 -20 -16 0 -11 -17 -31 -62 -75 -16 -15 -28 -32 -28 -39 0
-7 -19 -32 -41 -55 -55 -56 -72 -84 -65 -103 8 -21 53 -19 83 4 23 19 53 19
53 0 0 -5 -10 -13 -22 -18 -25 -9 -161 -149 -220 -226 -29 -37 -35 -51 -27
-62 6 -7 19 -13 28 -13 17 0 145 120 155 145 3 9 13 18 22 22 9 3 26 15 39 27
77 72 97 86 115 86 17 0 20 4 15 19 -8 27 30 39 55 16 20 -18 40 -13 40 11 0
8 7 14 15 14 8 0 15 7 15 15 0 8 -7 15 -15 15 -8 0 -15 -4 -15 -10 0 -5 -7
-10 -15 -10 -8 0 -15 3 -15 6 0 14 43 64 55 64 13 0 24 27 18 46 -5 14 -101
-2 -123 -20 -21 -19 -68 -28 -75 -16 -10 16 15 40 41 40 19 0 24 5 24 26 0 17
17 46 50 84 28 32 50 60 50 63 0 2 33 38 73 79 39 40 113 119 163 173 49 55
105 116 122 135 50 54 44 60 -52 60 -49 0 -88 4 -91 11 -8 12 133 149 154 149
26 0 134 -140 165 -215 8 -18 19 -36 25 -39 6 -4 11 -17 11 -28 0 -12 7 -30
17 -40 9 -10 19 -37 23 -61 4 -23 15 -69 24 -102 25 -91 23 -332 -4 -408 -11
-31 -20 -66 -20 -77 0 -12 -9 -38 -20 -60 -11 -22 -20 -46 -20 -53 0 -8 -8
-25 -18 -38 -11 -13 -22 -36 -26 -51 -6 -26 -10 -28 -57 -28 -34 0 -51 4 -55
15 -3 8 -14 17 -25 20 -10 4 -19 13 -19 21 0 8 -9 23 -20 34 -11 11 -22 31
-26 45 -3 14 -10 25 -14 25 -4 0 -19 11 -34 25 -15 14 -38 25 -52 25 -17 0
-24 6 -24 18 0 11 -9 27 -20 37 -11 10 -20 23 -20 30 0 22 -65 75 -94 75 -41
0 -31 -34 12 -38 24 -2 33 -9 38 -27 3 -13 14 -31 25 -41 10 -9 19 -25 19 -36
0 -10 4 -18 9 -18 4 0 22 -13 39 -30 18 -16 36 -30 41 -30 5 0 11 -10 13 -22
2 -13 13 -27 26 -33 14 -6 22 -18 22 -33 0 -41 18 -61 60 -68 22 -4 45 -13 51
-20 6 -8 20 -14 29 -14 10 0 30 -10 45 -23 67 -55 115 -102 115 -113 0 -6 11
-21 25 -34 14 -13 25 -34 25 -48 0 -15 7 -26 20 -29 16 -4 20 -14 20 -50 0
-37 3 -44 18 -41 27 5 29 73 3 90 -27 16 -29 88 -5 113 20 19 114 204 114 223
0 7 9 30 20 52 11 22 20 47 20 57 0 10 7 31 15 46 41 79 44 484 5 608 -11 34
-20 69 -20 78 0 9 -9 33 -20 54 -11 20 -20 43 -20 49 0 7 -16 42 -35 78 -19
36 -40 76 -47 90 -11 22 -63 93 -155 211 -31 40 -158 146 -237 197 -28 18 -85
49 -126 68 -41 19 -92 43 -112 54 -20 11 -46 20 -58 20 -11 0 -37 7 -58 16
-88 38 -325 53 -522 33z"/>
<path d="M1070 2980 c0 -6 -11 -20 -25 -32 -34 -30 -31 -58 9 -90 19 -16 38
-28 41 -28 3 0 17 12 30 28 35 39 33 82 -5 110 -31 24 -50 28 -50 12z"/>
<path d="M796 2413 c9 -39 13 -43 35 -43 17 0 20 6 17 33 -2 27 -8 33 -31 35
-26 3 -27 1 -21 -25z"/>
<path d="M696 2414 c-12 -30 -6 -82 9 -88 8 -3 15 -12 15 -21 0 -11 -9 -14
-32 -13 -28 3 -34 -1 -36 -20 -8 -53 73 -95 128 -67 35 18 46 62 30 119 -10
38 -24 52 -96 98 -7 5 -15 1 -18 -8z"/>
<path d="M916 2395 c-13 -14 -31 -25 -41 -25 -16 0 -17 -7 -12 -64 4 -40 2
-76 -6 -96 -15 -40 -55 -85 -85 -94 -12 -4 -22 -12 -22 -18 0 -10 -46 -7 -102
7 -22 6 -28 4 -28 -10 0 -9 9 -19 20 -22 15 -4 17 -9 10 -22 -14 -27 -2 -365
15 -432 8 -31 15 -67 15 -80 0 -13 12 -55 25 -94 30 -85 31 -105 5 -112 -10
-3 -22 -15 -26 -27 -4 -11 -13 -25 -19 -31 -7 -5 -16 -20 -20 -32 -5 -18 -2
-23 13 -23 14 0 21 9 26 30 3 17 12 30 19 30 8 0 22 9 32 20 21 23 71 26 101
6 11 -8 39 -19 62 -25 41 -11 52 -24 32 -36 -5 -3 -37 2 -72 10 -68 18 -100
11 -126 -26 -7 -10 -19 -19 -25 -19 -7 0 -18 -9 -25 -21 -10 -15 -20 -20 -39
-16 -19 3 -27 0 -30 -13 -3 -11 -18 -20 -41 -24 -21 -3 -45 -14 -54 -25 -15
-18 -21 -19 -49 -9 -39 14 -102 -12 -97 -40 3 -14 16 -18 72 -20 58 -3 74 1
97 17 16 12 39 21 53 21 14 0 28 5 32 11 3 6 22 17 40 25 19 8 34 18 34 23 0
5 14 14 30 20 17 5 33 17 36 26 10 24 41 17 63 -14 12 -16 21 -34 21 -39 0 -6
10 -23 23 -39 12 -15 28 -40 34 -54 10 -23 8 -30 -22 -64 -19 -20 -31 -43 -28
-51 7 -19 22 -18 30 3 3 10 20 30 37 45 35 31 86 36 126 13 l25 -14 -34 -1
c-30 0 -46 -13 -140 -110 -58 -61 -114 -110 -123 -110 -10 0 -18 -7 -18 -15 0
-10 -11 -15 -35 -15 -25 0 -37 -6 -45 -21 -10 -18 -17 -20 -61 -14 -54 8 -60
1 -26 -31 37 -35 71 -37 130 -9 90 45 121 64 129 80 5 8 14 15 21 15 7 0 37
26 68 58 102 105 91 101 143 51 48 -46 56 -66 31 -75 -21 -8 -19 -18 10 -45
13 -13 25 -30 25 -36 0 -18 51 -16 76 1 18 13 27 11 87 -20 37 -19 74 -34 82
-34 8 0 15 -4 15 -10 0 -5 -7 -10 -15 -10 -21 0 -18 -20 6 -49 17 -21 22 -22
30 -10 5 7 9 17 9 22 0 4 5 7 10 7 15 0 12 -40 -5 -56 -8 -9 -15 -28 -15 -44
0 -16 -7 -30 -15 -34 -8 -3 -15 -18 -15 -33 0 -16 -12 -39 -29 -58 -37 -39
-94 -149 -89 -172 5 -24 25 -21 76 11 40 25 42 29 42 74 0 44 2 49 36 67 19
10 40 27 45 37 11 21 68 25 87 6 17 -17 28 0 14 23 -11 17 -8 21 20 39 l33 20
18 -23 c16 -20 18 -21 30 -5 25 32 95 41 327 42 173 1 231 4 250 15 13 8 42
13 63 13 l38 -2 -7 35 c-5 28 -3 35 9 35 9 0 19 -9 22 -20 7 -23 55 -28 55 -6
0 28 26 38 58 22 23 -12 37 -13 68 -4 22 5 42 15 46 21 8 14 -19 67 -34 67 -6
0 -20 8 -30 17 -15 14 -21 15 -27 4 -5 -7 -17 -11 -27 -8 -17 4 -17 6 4 12 12
4 22 13 22 21 0 22 20 27 38 10 56 -54 75 -66 107 -66 26 0 35 5 41 22 5 18
-1 29 -35 59 -22 20 -41 41 -40 45 0 5 24 28 54 51 47 37 60 43 115 47 70 4
83 12 56 32 -34 24 -325 23 -361 -2 -11 -8 -38 -14 -60 -14 -31 0 -47 7 -69
30 l-28 29 -18 -22 c-15 -18 -20 -19 -34 -8 -10 8 -16 29 -16 53 0 36 -2 39
-16 27 -9 -8 -25 -33 -35 -57 -22 -51 -40 -60 -75 -37 -27 17 -27 23 -9 97 4
16 0 32 -14 49 -26 32 -51 17 -68 -41 -7 -23 -18 -48 -24 -56 -6 -8 -9 -26 -6
-41 13 -67 13 -68 -15 -71 -15 -2 -40 4 -57 12 -16 9 -43 16 -58 16 -15 0 -33
4 -39 8 -11 8 -40 118 -37 142 2 8 4 52 6 98 3 68 1 82 -10 77 -8 -3 -18 -5
-22 -5 -13 0 -71 -97 -71 -119 0 -11 -5 -41 -12 -66 l-12 -45 -49 0 c-37 0
-56 6 -77 24 -16 13 -46 26 -69 30 -44 7 -67 34 -62 73 1 13 -6 27 -18 35 -23
14 -28 67 -11 113 7 19 6 34 -5 55 -19 36 -19 64 -1 79 23 19 26 60 5 72 -20
10 -59 -3 -59 -20 0 -5 -8 -11 -18 -13 -19 -5 -72 -99 -72 -127 0 -23 -18 -40
-39 -34 -9 2 -29 27 -45 54 -25 46 -27 56 -21 112 5 37 16 73 29 90 39 55 80
97 92 97 19 0 38 40 26 52 -7 7 -16 2 -27 -15 -9 -14 -45 -39 -80 -56 -36 -17
-65 -35 -65 -41 0 -5 -6 -10 -14 -10 -8 0 -19 -14 -25 -32 -9 -24 -14 -29 -23
-20 -9 9 -6 18 13 39 54 62 59 93 14 93 -19 0 -28 -9 -39 -35 -12 -27 -21 -35
-40 -35 -32 0 -33 14 -3 50 12 16 33 45 47 64 14 20 30 36 37 36 7 0 17 8 22
19 6 10 23 24 38 30 38 17 74 63 63 81 -7 12 -12 12 -27 -2 -10 -8 -35 -18
-55 -22 -21 -4 -38 -11 -38 -15 0 -5 -29 -23 -63 -39 -35 -17 -70 -38 -77 -47
-17 -21 -46 -19 -80 5 -16 11 -43 23 -60 27 -29 5 -32 9 -28 38 3 24 0 31 -9
28 -7 -3 -13 -10 -13 -17 0 -6 -16 7 -35 29 -33 38 -34 43 -35 122 0 81 9 104
33 85 21 -16 74 -22 90 -9 20 16 31 54 17 62 -19 12 -10 40 23 67 32 25 34 31
40 103 5 74 15 104 24 78 8 -21 40 -14 57 12 11 17 14 30 7 42 -5 10 -12 26
-15 36 -8 24 -33 21 -60 -8z m84 -1165 c0 -5 -4 -10 -10 -10 -5 0 -10 5 -10
10 0 6 5 10 10 10 6 0 10 -4 10 -10z m200 -80 c0 -5 -4 -10 -10 -10 -5 0 -10
5 -10 10 0 6 5 10 10 10 6 0 10 -4 10 -10z m200 -80 c0 -5 -4 -10 -10 -10 -5
0 -10 5 -10 10 0 6 5 10 10 10 6 0 10 -4 10 -10z m-220 -86 c0 -9 -10 -14 -27
-14 -25 0 -26 1 -8 20 19 21 35 18 35 -6z m1168 -122 c4 -14 -34 -16 -42 -3
-6 10 13 21 28 17 6 -1 12 -8 14 -14z m-88 -2 c0 -5 -9 -10 -19 -10 -11 0 -23
5 -26 10 -4 6 5 10 19 10 14 0 26 -4 26 -10z m-610 -86 c0 -8 -7 -22 -15 -30
-9 -10 -15 -34 -15 -65 0 -37 -5 -53 -20 -66 -11 -10 -20 -26 -20 -36 0 -17
-23 -60 -46 -84 -7 -7 -14 -18 -16 -25 -5 -13 -38 -4 -38 11 0 6 11 22 25 37
18 20 25 38 25 68 0 24 8 53 20 71 12 18 20 47 20 72 0 29 5 45 18 52 27 16
62 13 62 -5z m780 -134 c0 -5 -4 -10 -10 -10 -5 0 -10 5 -10 10 0 6 5 10 10
10 6 0 10 -4 10 -10z m-950 -211 c0 -14 -5 -19 -17 -17 -26 5 -29 38 -4 38 15
0 21 -6 21 -21z"/>
<path d="M576 2361 c-4 -5 -2 -12 3 -15 5 -4 12 -2 15 3 4 5 2 12 -3 15 -5 4
-12 2 -15 -3z"/>
<path d="M532 2253 c4 -87 23 -85 24 2 2 51 -1 65 -12 65 -12 0 -14 -14 -12
-67z"/>
<path d="M574 2156 c-6 -17 2 -36 17 -36 12 0 12 37 -1 45 -6 3 -13 -1 -16 -9z"/>
<path d="M41 2126 c-24 -38 -20 -59 18 -92 24 -20 28 -21 43 -7 13 11 40 15
113 14 105 -1 123 3 104 25 -8 10 -34 14 -86 14 -66 0 -75 2 -80 20 -3 10 -13
22 -23 25 -10 3 -21 12 -24 20 -10 26 -43 16 -65 -19z m49 -26 c0 -5 -4 -10
-10 -10 -5 0 -10 5 -10 10 0 6 5 10 10 10 6 0 10 -4 10 -10z"/>
<path d="M407 2063 c-13 -12 -7 -21 24 -33 23 -10 33 -10 42 -1 9 10 8 16 -7
27 -21 15 -48 18 -59 7z"/>
<path d="M570 2020 c0 -5 5 -10 10 -10 6 0 10 5 10 10 0 6 -4 10 -10 10 -5 0
-10 -4 -10 -10z"/>
<path d="M744 1899 c-3 -6 -1 -16 5 -22 9 -9 14 -8 21 3 5 8 10 18 10 23 0 11
-28 8 -36 -4z"/>
<path d="M1537 1810 c-14 -11 -37 -20 -51 -20 -15 0 -31 -8 -38 -20 -7 -11
-20 -20 -29 -20 -23 0 -109 -68 -109 -85 0 -8 2 -15 5 -15 16 0 72 29 84 43 7
10 23 17 35 17 12 0 31 7 42 15 10 8 27 15 36 15 10 0 23 9 30 20 14 21 43 26
68 10 9 -6 23 -3 42 8 35 20 35 30 2 42 -41 16 -89 12 -117 -10z"/>
<path d="M1480 1675 c-7 -8 -18 -15 -26 -15 -7 0 -16 -9 -19 -20 -3 -11 -10
-20 -14 -20 -15 0 -91 -65 -91 -78 0 -27 83 26 95 61 4 9 14 17 24 17 15 0 71
51 71 65 0 11 -28 4 -40 -10z"/>
<path d="M1605 1670 c-14 -15 -16 -23 -7 -32 15 -15 42 -2 42 21 0 29 -15 33
-35 11z"/>
<path d="M1165 1650 c-7 -11 19 -20 34 -10 9 5 7 9 -8 13 -12 3 -23 2 -26 -3z"/>
<path d="M1535 1599 c-10 -15 3 -25 16 -12 7 7 7 13 1 17 -6 3 -14 1 -17 -5z"/>
<path d="M2280 1560 c0 -5 5 -10 10 -10 6 0 10 5 10 10 0 6 -4 10 -10 10 -5 0
-10 -4 -10 -10z"/>
<path d="M1447 1493 c-4 -3 -7 -15 -7 -26 0 -13 5 -17 16 -13 9 3 18 6 20 6 2
0 4 9 4 20 0 19 -20 27 -33 13z"/>
<path d="M2350 1470 c0 -5 7 -10 15 -10 8 0 15 5 15 10 0 6 -7 10 -15 10 -8 0
-15 -4 -15 -10z"/>
<path d="M2195 1430 c3 -5 19 -10 35 -10 16 0 32 5 35 10 4 6 -10 10 -35 10
-25 0 -39 -4 -35 -10z"/>
<path d="M1947 1333 c-4 -3 -7 -12 -7 -20 0 -17 26 -17 33 1 8 21 -11 35 -26
19z"/>
<path d="M2450 1315 c0 -12 7 -15 25 -13 14 2 26 8 26 13 0 6 -12 11 -26 13
-18 2 -25 -1 -25 -13z"/>
<path d="M2180 1310 c0 -5 5 -10 10 -10 6 0 10 5 10 10 0 6 -4 10 -10 10 -5 0
-10 -4 -10 -10z"/>
<path d="M1579 1266 c-7 -14 -8 -33 -5 -43 7 -17 8 -17 22 1 16 23 18 52 4 61
-5 3 -15 -5 -21 -19z"/>
<path d="M2046 1273 c-11 -11 -6 -23 8 -23 8 0 17 4 20 9 7 10 -19 23 -28 14z"/>
<path d="M1520 1150 c-12 -8 -10 -10 8 -10 13 0 20 4 17 10 -7 12 -6 12 -25 0z"/>
<path d="M2156 1151 c-4 -7 -5 -15 -2 -18 9 -9 19 4 14 18 -4 11 -6 11 -12 0z"/>
<path d="M780 821 c0 -17 18 -21 24 -6 3 9 0 15 -9 15 -8 0 -15 -4 -15 -9z"/>
<path d="M435 627 c-10 -38 1 -47 58 -47 70 0 99 9 95 28 -3 16 -40 29 -110
39 -33 4 -38 2 -43 -20z"/>
<path d="M2640 596 c0 -11 10 -16 31 -16 38 0 35 24 -4 28 -19 2 -27 -1 -27
-12z"/>
</g>
</svg>
